# ProBuilder 5.0.6
# https://unity3d.com/unity/features/worldbuilding/probuilder
# 04/02/2023 15:36:53

mtllib ./EdgeCard.mtl
o EdgeCard

g Cube
v 1.192093E-07 0 -5.960464E-08
v -1.005338 0 -5.960464E-08
v 1.192093E-07 0.1147146 -5.960464E-08
v -1.005338 0.1147146 -5.960464E-08
v -1.005338 0 -1.744709
v -1.005338 0.1147146 -1.744709
v 1.192093E-07 0 -1.744709
v 1.192093E-07 0.1147146 -1.744709

vt 1.192093E-07 0
vt -1.005338 0
vt 1.192093E-07 0.1147146
vt -1.005338 0.1147146
vt -1.744709 0
vt -1.744709 0.1147146
vt 1.005338 0
vt 1.005338 0.1147146
vt 1.744709 0
vt 1.744709 0.1147146

vn 0 0 1
vn -1 0 0
vn 0 0 -1
vn 1 0 0

usemtl ProBuilderDefault
f 3/3/1 4/4/1 2/2/1 1/1/1
f 4/3/2 6/6/2 5/5/2 2/1/2
f 6/8/3 8/3/3 7/1/3 5/7/3
f 8/10/4 3/3/4 1/1/4 7/9/4

